<svg width="278" height="331" viewBox="0 0 278 331" fill="none" xmlns="http://www.w3.org/2000/svg">
<path d="M138.061 56.3092C93.2518 56.3092 56.9199 92.2512 56.9199 136.58C56.9199 162.937 69.0306 185.7 89.6186 200.077C96.885 204.87 100.518 213.256 100.518 222.841C100.518 238.415 87.1965 251.594 71.4527 251.594C65.3974 251.594 59.342 249.198 54.4978 245.604C20.588 220.444 0 180.908 0 136.58C0 61.1014 61.7642 0 138.061 0C214.358 0 277.333 59.9034 277.333 135.382C277.333 179.71 255.534 219.246 222.836 244.406C217.991 248 211.936 250.396 205.881 250.396C190.137 250.396 176.815 237.217 176.815 221.643C176.815 212.058 181.659 203.671 187.715 198.879C207.092 184.502 220.413 160.541 220.413 135.382C219.202 92.2512 182.87 56.3092 138.061 56.3092ZM204.67 301.913C204.67 286.338 191.348 273.159 175.604 273.159H101.729C85.9854 273.159 72.6637 286.338 72.6637 301.913C72.6637 317.488 85.9854 330.667 101.729 330.667H176.815C192.559 329.469 204.67 317.488 204.67 301.913Z" fill="white"/>
</svg>
