<svg width="652" height="137" viewBox="0 0 652 137" fill="none" xmlns="http://www.w3.org/2000/svg">
<path d="M239.579 107.354C228.5 122.429 213.267 129.738 195.264 129.738C163.412 129.738 140.793 103.243 140.793 76.2902C140.793 49.3377 163.412 22.842 194.802 22.842C213.267 22.842 228.039 30.1511 239.118 44.7694C242.811 49.7945 241.887 56.19 237.271 59.3878C231.732 63.4992 225.269 60.7582 220.653 55.2764C215.575 49.3377 208.189 43.399 195.264 43.399C180.031 43.399 164.336 56.6468 164.336 75.8334C164.336 95.0199 180.031 108.268 195.726 108.268C208.651 108.268 216.498 102.786 222.038 95.4767C225.269 91.3653 231.732 88.1676 237.271 92.279C241.887 96.3904 242.811 103.243 239.579 107.354Z" fill="white"/>
<path d="M264.507 24.2131C270.969 24.2131 275.586 28.7813 275.586 35.1768V117.405C275.586 123.8 270.969 128.369 264.507 128.369C258.044 128.369 253.428 123.8 253.428 117.405V35.1768C253.428 28.7813 258.044 24.2131 264.507 24.2131Z" fill="white"/>
<path d="M288.511 37.4598C288.511 31.0643 294.051 25.5824 300.514 25.5824C306.976 25.5824 312.054 31.0643 312.054 37.4598C312.054 43.8553 306.515 49.3372 300.514 49.3372C294.051 49.3372 288.511 43.8553 288.511 37.4598ZM300.514 57.56C306.976 57.56 311.592 62.1282 311.592 68.5237V108.267C311.592 114.663 306.976 119.231 300.514 119.231C294.051 119.231 289.435 114.663 289.435 108.267V68.5237C289.435 62.1282 294.051 57.56 300.514 57.56Z" fill="white"/>
<path d="M387.759 117.404C381.296 125.17 371.14 129.738 360.062 129.738C339.75 129.738 323.594 113.749 323.594 93.6493C323.594 73.5491 340.212 57.5603 360.062 57.5603C371.14 57.5603 381.296 62.1285 387.759 69.8945C392.375 75.3764 390.528 80.4014 385.451 84.056C379.911 87.2538 377.141 85.4265 372.064 80.4014C369.756 78.1173 366.063 76.29 361.446 76.29C350.368 76.29 343.905 84.9697 343.905 93.6493C343.905 102.329 350.368 111.009 361.446 111.009C366.063 111.009 369.756 109.181 372.064 106.897C377.141 101.872 379.911 100.045 385.451 103.243C390.528 106.897 392.375 111.922 387.759 117.404Z" fill="white"/>
<path d="M463.003 126.083C458.387 129.737 451.924 128.824 448.231 123.799L423.304 92.278V117.86C423.304 124.256 418.687 128.824 412.225 128.824C405.762 128.824 401.146 124.256 401.146 117.86V35.632C401.146 29.2365 405.762 24.6683 412.225 24.6683C418.687 24.6683 423.304 29.2365 423.304 35.632V89.0802L434.844 75.3756L445.923 62.5845C450.078 58.0163 456.54 57.1027 461.156 60.7572C465.773 64.4118 466.234 70.8073 462.08 75.3756L447.769 90.9075L464.849 111.921C468.542 116.033 467.619 122.428 463.003 126.083Z" fill="white"/>
<path d="M613.029 77.2036C613.029 77.6604 613.029 77.6604 613.029 77.6604C613.029 84.9696 611.182 92.2787 607.951 98.6742C605.643 103.699 602.411 108.724 598.257 112.836L603.796 119.688C607.951 124.713 606.566 129.281 601.488 132.936L600.565 133.393C595.949 137.047 590.871 136.134 587.178 131.109L581.639 124.256C574.714 127.454 566.405 129.281 558.096 129.281C528.091 129.281 503.625 105.07 503.625 75.8331C503.625 46.1397 528.091 22.3849 558.096 22.3849C588.101 22.3849 612.567 46.5965 612.567 75.8331V77.2036H613.029ZM584.408 95.0196C586.255 92.2787 587.64 89.081 588.563 85.8832C589.486 82.6854 589.948 79.4877 589.948 76.2899C589.948 58.4739 576.099 43.8556 558.558 43.8556C541.478 43.8556 527.168 58.0171 527.168 76.2899C527.168 94.106 541.478 108.724 558.558 108.724C561.789 108.724 565.02 108.267 568.252 107.354L564.559 102.329C560.404 97.3037 560.866 92.2787 566.405 89.081L567.328 88.6241C572.406 85.4264 577.022 85.8832 580.715 90.9082L584.408 95.0196Z" fill="white"/>
<path d="M625.492 37.4598C625.492 31.0643 631.031 25.5824 637.494 25.5824C643.957 25.5824 649.035 31.0643 649.035 37.4598C649.035 43.8553 643.495 49.3372 637.494 49.3372C630.57 49.3372 625.492 43.8553 625.492 37.4598ZM637.032 57.56C643.495 57.56 648.111 62.1282 648.111 68.5237V108.267C648.111 114.663 643.495 119.231 637.032 119.231C630.57 119.231 625.954 114.663 625.954 108.267V68.5237C626.415 62.1282 631.031 57.56 637.032 57.56Z" fill="white"/>
<path d="M54.4744 21.7744C36.7941 21.7744 22.4587 35.6729 22.4587 52.8145C22.4587 63.0068 27.2372 71.8092 35.3606 77.3686C38.2276 79.2217 39.6612 82.4647 39.6612 86.171C39.6612 92.1937 34.4049 97.2899 28.1929 97.2899C25.8036 97.2899 23.4144 96.3633 21.503 94.9734C8.12336 85.2445 0 69.956 0 52.8145C0 23.6275 24.3701 0 54.4744 0C84.5786 0 109.427 23.1642 109.427 52.3512C109.427 69.4928 100.825 84.7812 87.9235 94.5101C86.0122 95.9 83.6229 96.8266 81.2337 96.8266C75.0217 96.8266 69.7654 91.7304 69.7654 85.7077C69.7654 82.0015 71.6768 78.7585 74.066 76.9053C81.7115 71.3459 86.9678 62.0802 86.9678 52.3512C86.49 35.6729 72.1546 21.7744 54.4744 21.7744ZM80.7559 116.748C80.7559 110.725 75.4996 105.629 69.2876 105.629H40.139C33.927 105.629 28.6707 110.725 28.6707 116.748C28.6707 122.771 33.927 127.867 40.139 127.867H69.7654C75.9774 127.403 80.7559 122.771 80.7559 116.748Z" fill="url(#paint0_linear)"/>
<defs>
<linearGradient id="paint0_linear" x1="3.83953" y1="17.9813" x2="109.638" y2="20.8798" gradientUnits="userSpaceOnUse">
<stop stop-color="white"/>
<stop offset="1" stop-color="white"/>
</linearGradient>
</defs>
</svg>
